g Porch_Pilar
v -0.0743112862 -0.0807684287 0.341076642
v -0.0805252269 -0.0807946771 0.341076642
v -0.0648443177 -0.0649987757 0.347976685
v 0.0805966184 0.0805786103 0.341083676
v 0.0805970058 0.0805786103 0.000704650884
v 0.0806813091 0.0751696751 0.000704650884
v 0.080681093 0.0751696751 0.341083676
v 0.0802256092 -0.0764758289 0.341079414
v 0.0802255496 -0.0764764398 0.000704650884
v 0.0803249553 -0.0798846409 0.341079414
v 0.0803249553 -0.0798846409 0.000704650884
v 0.0651556775 -0.0623175018 0.347979724
v 0.0651556775 -0.0649987757 0.347979426
v 0.0651556775 -0.0649987757 2.86147881
v 0.0651556775 -0.0623175018 2.86147881
v 0.06515567 0.0623199455 0.347983688
v 0.06515567 0.0623199455 2.8615129
v 0.06515567 0.0650012195 0.347983688
v 0.06515567 0.0650012195 2.8615129
v -0.0805252269 -0.0807946771 0.341076642
v -0.0805252269 -0.0807946771 0.000704650884
v -0.0806140751 -0.0744665489 0.000704650884
v -0.0806140378 -0.0744659379 0.341076642
v -0.0806374922 0.0744012445 0.000704650884
v -0.0806374922 0.0744012445 0.341081232
v -0.0806813315 0.0807049572 0.341081232
v -0.0806813315 0.0807049572 0.000704650884
v -0.0648443252 0.0650012195 2.86149287
v -0.0648443252 0.0623199455 2.86149287
v -0.0648443326 0.0650012195 0.347981244
v -0.0648443326 0.0623199455 0.347981244
v -0.0648443252 -0.0623175018 2.86145878
v -0.0648443177 -0.0623175018 0.347976983
v -0.0648443252 -0.0649987757 2.86145878
v -0.0648443177 -0.0649987757 0.347976685
v 0.0766326636 -0.0800689682 0.341079414
v 0.0803249553 -0.0798846409 0.341079414
v 0.0803249553 -0.0798846409 0.000704650884
v 0.0766326338 -0.0800689682 0.000704650884
v -0.0743112862 -0.0807684287 0.341076642
v -0.0743113235 -0.0807684287 0.000704650884
v -0.0805252269 -0.0807946771 0.341076642
v -0.0805252269 -0.0807946771 0.000704650884
v -0.0648443252 -0.0649987757 2.86145878
v -0.0621630698 -0.0649987757 2.86145878
v -0.0648443177 -0.0649987757 0.347976685
v -0.0621630661 -0.0649987757 0.347976685
v 0.0624744222 -0.0649987757 0.347979426
v 0.0624744222 -0.0649987757 2.86147881
v 0.0651556775 -0.0649987757 0.347979426
v 0.0651556775 -0.0649987757 2.86147881
v -0.0806813315 0.0807049572 0.341081232
v -0.0806813315 0.0807049572 0.000704650884
v -0.0742441714 0.0807946771 0.000704650884
v -0.0742441267 0.0807946771 0.341081232
v 0.0753241032 0.0805267319 0.000704650884
v 0.0753238648 0.0805267319 0.341083676
v 0.0805966184 0.0805786103 0.341083676
v 0.0805970058 0.0805786103 0.000704650884
v 0.062474411 0.0650012195 0.347983986
v 0.06515567 0.0650012195 0.347983688
v 0.06515567 0.0650012195 2.8615129
v 0.062474411 0.0650012195 2.8615129
v -0.0621630698 0.0650012195 2.86149287
v -0.0621630736 0.0650012195 0.347981244
v -0.0648443252 0.0650012195 2.86149287
v -0.0648443326 0.0650012195 0.347981244
v -0.0648443177 -0.0649987757 0.347976685
v -0.0621630661 -0.0649987757 0.347976685
v -0.0743112862 -0.0807684287 0.341076642
v 0.0624744222 -0.0649987757 0.347979426
v 0.0766326636 -0.0800689682 0.341079414
v 0.0651556775 -0.0649987757 0.347979426
v 0.0803249553 -0.0798846409 0.341079414
v -0.0805252269 -0.0807946771 0.341076642
v -0.0806140378 -0.0744659379 0.341076642
v -0.0648443177 -0.0649987757 0.347976685
v -0.0648443177 -0.0623175018 0.347976983
v -0.0806374922 0.0744012445 0.341081232
v -0.0648443326 0.0623199455 0.347981244
v -0.0648443326 0.0650012195 0.347981244
v -0.0806813315 0.0807049572 0.341081232
v -0.0806813315 0.0807049572 0.341081232
v -0.0742441267 0.0807946771 0.341081232
v -0.0648443326 0.0650012195 0.347981244
v -0.0621630736 0.0650012195 0.347981244
v 0.062474411 0.0650012195 0.347983986
v 0.0753238648 0.0805267319 0.341083676
v 0.06515567 0.0650012195 0.347983688
v 0.0805966184 0.0805786103 0.341083676
v 0.0805966184 0.0805786103 0.341083676
v 0.080681093 0.0751696751 0.341083676
v 0.06515567 0.0650012195 0.347983688
v 0.06515567 0.0623199455 0.347983688
v 0.0651556775 -0.0623175018 0.347979724
v 0.0802256092 -0.0764758289 0.341079414
v 0.0651556775 -0.0649987757 0.347979426
v 0.0803249553 -0.0798846409 0.341079414
v -0.0621630698 -0.0649987757 2.86145878
v 0.000155673028 0 2.8614862
v 0.0624744222 -0.0649987757 2.86147881
v -0.0648443252 -0.0649987757 2.86145878
v 0.0651556775 -0.0649987757 2.86147881
v -0.0648443252 -0.0623175018 2.86145878
v 0.0651556775 -0.0623175018 2.86147881
v -0.0648443252 0.0623199455 2.86149287
v 0.06515567 0.0623199455 2.8615129
v -0.0648443252 0.0650012195 2.86149287
v 0.06515567 0.0650012195 2.8615129
v -0.0621630698 0.0650012195 2.86149287
v 0.062474411 0.0650012195 2.8615129
v 0.0766326338 -0.0800689682 0.000704650884
v 0.000250449171 -6.59179641E-05 0.00070312497
v -0.0743113235 -0.0807684287 0.000704650884
v 0.0803249553 -0.0798846409 0.000704650884
v -0.0805252269 -0.0807946771 0.000704650884
v 0.0802255496 -0.0764764398 0.000704650884
v -0.0806140751 -0.0744665489 0.000704650884
v 0.0806813091 0.0751696751 0.000704650884
v -0.0806374922 0.0744012445 0.000704650884
v 0.0805970058 0.0805786103 0.000704650884
v -0.0806813315 0.0807049572 0.000704650884
v 0.0753241032 0.0805267319 0.000704650884
v -0.0742441714 0.0807946771 0.000704650884
vt 0.602650166 0.417076319
vt 0.602683544 0.409179032
vt 0.5826087 0.429107904
vt 0.397594452 1.24812365
vt 0.397594452 1.50588989
vt 0.404468536 1.50588989
vt 0.404468536 1.24812365
vt 0.597195148 1.24812675
vt 0.597195625 1.50588989
vt 0.601527214 1.24812675
vt 0.601527214 1.50588989
vt 0.579201221 1.24290133
vt 0.5826087 1.24290156
vt 0.582608223 -0.660551786
vt 0.579200745 -0.660551786
vt 0.420799255 1.24289823
vt 0.420798779 -0.660577536
vt 0.417391777 1.24289823
vt 0.4173913 -0.660577536
vt 0.397316456 1.24812889
vt 0.397316456 1.50588989
vt 0.405358791 1.50588989
vt 0.405359268 1.24812889
vt 0.594554901 1.50588989
vt 0.594554901 1.24812555
vt 0.602566242 1.24812555
vt 0.602566242 1.50588989
vt 0.5826087 -0.660562396
vt 0.579201221 -0.660562396
vt 0.582608223 1.24290013
vt 0.579200745 1.24290013
vt 0.420799255 -0.660536647
vt 0.420798779 1.24290347
vt 0.417391777 -0.660536647
vt 0.4173913 1.24290371
vt 1.24812675 0.608910978
vt 1.24812675 0.613603532
vt 1.50588989 0.613603532
vt 1.50588989 0.608910978
vt 1.24812889 0.417076319
vt 1.50588989 0.41707629
vt 1.24812889 0.409179032
vt 1.50588989 0.409179032
vt -0.660536647 0.429107755
vt -0.660536647 0.432515353
vt 1.24290371 0.429107904
vt 1.24290371 0.432515502
vt 1.24290156 0.590917289
vt -0.660551786 0.59091717
vt 1.24290156 0.594324887
vt -0.660551786 0.594324768
vt -0.248125553 0.408980668
vt -0.505889893 0.408980668
vt -0.505889893 0.417161673
vt -0.248125553 0.417161703
vt -0.505889893 0.607248008
vt -0.248123646 0.60724771
vt -0.248123646 0.613948822
vt -0.505889893 0.613949358
vt -0.242897987 0.590917289
vt -0.242898226 0.594324887
vt 1.66057754 0.594324768
vt 1.66057754 0.59091717
vt 1.6605624 0.432515383
vt -0.242900133 0.432515502
vt 1.6605624 0.429107785
vt -0.242900133 0.429107904
vt 0.5826087 0.429107904
vt 0.5826087 0.432515502
vt 0.602650166 0.417076319
vt 0.5826087 0.590917289
vt 0.601761341 0.608910978
vt 0.5826087 0.594324887
vt 0.601527214 0.613603532
vt 0.602683544 0.409179032
vt 0.594640732 0.409066141
vt 0.5826087 0.429107904
vt 0.579201221 0.429107904
vt 0.405445099 0.409036368
vt 0.420799255 0.429107904
vt 0.417391777 0.429107904
vt 0.397433758 0.408980668
vt 0.397433758 0.408980668
vt 0.397319794 0.417161703
vt 0.417391777 0.429107904
vt 0.417391777 0.432515502
vt 0.417391777 0.590917289
vt 0.397660255 0.60724771
vt 0.417391777 0.594324887
vt 0.397594452 0.613948822
vt 0.397594452 0.613948822
vt 0.404468536 0.61405617
vt 0.417391777 0.594324887
vt 0.420799255 0.594324887
vt 0.579201221 0.594324887
vt 0.597195148 0.61347729
vt 0.5826087 0.594324887
vt 0.601527214 0.613603532
vt 0.582608223 0.432515353
vt 0.500001431 0.511716247
vt 0.582608223 0.59091717
vt 0.582608223 0.429107755
vt 0.582608223 0.594324768
vt 0.579200745 0.429107755
vt 0.579200745 0.594324768
vt 0.420798779 0.429107785
vt 0.420798779 0.594324768
vt 0.4173913 0.429107785
vt 0.4173913 0.594324768
vt 0.4173913 0.432515383
vt 0.4173913 0.59091717
vt 0.398238659 0.608910978
vt 0.499914646 0.511836886
vt 0.397349834 0.41707629
vt 0.398472786 0.613603532
vt 0.397316456 0.409179032
vt 0.402804375 0.61347723
vt 0.405358791 0.409066111
vt 0.595531464 0.614056468
vt 0.594554901 0.409036398
vt 0.602405548 0.613949358
vt 0.602566242 0.408980668
vt 0.602339745 0.607248008
vt 0.602680206 0.417161673
vn 0.00118447689 -0.401454329 0.915878296
vn 0.00118447689 -0.401454389 0.915878296
vn 0.00118447677 -0.401454329 0.915878296
vn 0.698055267 0.716043949 6.25669941E-07
vn 0.698055804 0.716043353 6.25670395E-07
vn 0.999980211 0.00629810896 5.68687256E-07
vn 0.999980211 0.00629819278 5.68690211E-07
vn 0.999914646 0.0130702611 0
vn 0.999914646 0.0130704399 0
vn 0.734487653 -0.678622067 0
vn 0.734487653 -0.678622067 0
vn 1 0 0
vn 0.707081139 -0.707132399 0
vn 0.707106769 -0.707106769 0
vn 1 0 0
vn 1 0 0
vn 1 0 0
vn 0.707132399 0.707081139 0
vn 0.707106769 0.707106769 0
vn -0.700621605 -0.713532984 0
vn -0.700621605 -0.713532984 0
vn -0.999974847 -0.00709679397 0
vn -0.999974847 -0.00709671061 0
vn -0.999993682 -0.0035561705 0
vn -0.999993682 -0.0035562038 0
vn -0.714454472 0.699681818 0
vn -0.714454472 0.699681818 0
vn -0.707106769 0.707106769 0
vn -1 0 0
vn -0.707106769 0.707106769 0
vn -1 0 0
vn -1 0 0
vn -1 0 0
vn -0.707106769 -0.707106769 0
vn -0.707081139 -0.707132399 0
vn 0.0272538345 -0.999628544 0
vn 0.734487653 -0.678622067 0
vn 0.734487653 -0.678622067 0
vn 0.0272537004 -0.999628544 0
vn 0.0044287201 -0.999990225 0
vn 0.0044287187 -0.999990225 0
vn -0.700621605 -0.713532984 0
vn -0.700621605 -0.713532984 0
vn -0.707106769 -0.707106769 0
vn -0 -1 0
vn -0.707081139 -0.707132399 0
vn -0 -1 0
vn -0 -1 0
vn -0 -1 0
vn 0.707081139 -0.707132399 0
vn 0.707106769 -0.707106769 0
vn -0.714454472 0.699681818 0
vn -0.714454472 0.699681818 0
vn -0.00607279502 0.999981642 0
vn -0.00607275311 0.999981642 0
vn -0.00402365811 0.999991894 0
vn -0.00402368279 0.999991894 0
vn 0.698055267 0.716043949 6.25669941E-07
vn 0.698055804 0.716043353 6.25670395E-07
vn -0 1 0
vn 0.707132399 0.707081139 0
vn 0.707106769 0.707106769 0
vn -0 1 0
vn -0 1 0
vn -0 1 0
vn -0.707106769 0.707106769 0
vn -0.707106769 0.707106769 0
vn 0.00118447677 -0.401454329 0.915878296
vn 0.001018357 -0.408391327 0.912806451
vn 0.001018357 -0.408391327 0.912806332
vn 0.00101835711 -0.408391356 0.912806451
vn 0.001018357 -0.408391327 0.912806332
vn 0.0118230442 -0.408811748 0.912542224
vn 0.0118230432 -0.408811718 0.912542224
vn -0.398855537 -0.00396272633 0.917005241
vn -0.398855567 -0.00396272633 0.917005241
vn -0.398855537 -0.00396272633 0.917005241
vn -0.398855567 -0.00396272633 0.917005241
vn -0.400613785 -6.40077924E-05 0.91624701
vn -0.400613755 -6.40077997E-05 0.91624701
vn -0.401334643 -0.0019583439 0.915929377
vn -0.401334643 -0.00195834436 0.915929377
vn -0.00391993206 0.398387522 0.91720885
vn -0.00391993206 0.398387551 0.91720885
vn -0.00391993253 0.398387551 0.91720885
vn -0.00391993159 0.398387522 0.91720885
vn 0.000376700627 0.403220564 0.91510278
vn 0.000376700569 0.403220534 0.91510278
vn -0.00262327958 0.407561213 0.913174093
vn -0.00262327958 0.407561213 0.913174093
vn 0.403819233 0.00421661977 0.914829016
vn 0.403819233 0.00421661977 0.914829016
vn 0.403819293 0.00421661977 0.914829016
vn 0.403819233 0.00421661977 0.914829016
vn 0.411143184 -0.000704990467 0.911570489
vn 0.411143184 -0.000704990525 0.911570489
vn 0.420580834 0.00681521324 0.907229543
vn 0.420580834 0.00681521185 0.907229543
vn -0.000160377225 -0.000266446965 1
vn -0.000160377225 -0.000266446936 1
vn -0.000160377225 -0.000266446965 1
vn -0.000420203578 0 1
vn 0.000112680289 0 1
vn -0.000158461786 -0.000273008627 1
vn -0.00014906151 -0.000273008685 1
vn -0.000158461815 -0.000273008656 1
vn -0.00014906151 -0.000273008656 1
vn 0.00010329028 0 1
vn -0.000410813605 0 1
vn -0.000160377211 -0.000257047068 1
vn -0.000160377211 -0.000257047068 1
vn -0 -1.89887505E-05 -1
vn -0 -1.89887505E-05 -1
vn -0 -1.89887487E-05 -1
vn 9.08823949E-07 -1.82050662E-05 -1
vn -1.86289162E-05 -2.61563429E-07 -1
vn 1.9626319E-05 5.7240868E-07 -1
vn -1.88668382E-05 0 -1
vn 1.90247938E-05 0 -1
vn -1.89856728E-05 -1.32046807E-07 -1
vn 1.86986908E-05 2.91441751E-07 -1
vn -2.59683588E-07 1.863125E-05 -1
vn -1.88006368E-07 1.91083582E-05 -1
vn -0 1.89016828E-05 -1
g Porch_Pilar_0
f 3/3/3 2/2/2 1/1/1
f 6/6/6 5/5/5 4/4/4
f 6/6/6 4/4/4 7/7/7
f 6/6/6 7/7/7 8/8/8
f 8/8/8 9/9/9 6/6/6
f 8/8/8 10/10/10 9/9/9
f 11/11/11 9/9/9 10/10/10
f 14/14/14 13/13/13 12/12/12
f 12/12/12 15/15/15 14/14/14
f 15/15/15 12/12/12 16/16/16
f 16/16/16 17/17/17 15/15/15
f 17/17/17 16/16/16 18/18/18
f 18/18/18 19/19/19 17/17/17
f 22/22/22 21/21/21 20/20/20
f 22/22/22 20/20/20 23/23/23
f 24/24/24 22/22/22 23/23/23
f 24/24/24 23/23/23 25/25/25
f 25/25/25 26/26/26 24/24/24
f 27/27/27 24/24/24 26/26/26
f 30/30/30 29/29/29 28/28/28
f 30/30/30 31/31/31 29/29/29
f 32/32/32 29/29/29 31/31/31
f 31/31/31 33/33/33 32/32/32
f 34/34/34 32/32/32 33/33/33
f 33/33/33 35/35/35 34/34/34
f 38/38/38 37/37/37 36/36/36
f 36/36/36 39/39/39 38/38/38
f 39/39/39 36/36/36 40/40/40
f 40/40/40 41/41/41 39/39/39
f 40/40/40 42/42/42 41/41/41
f 43/43/43 41/41/41 42/42/42
f 46/46/46 45/45/45 44/44/44
f 46/46/46 47/47/47 45/45/45
f 45/45/45 47/47/47 48/48/48
f 48/48/48 49/49/49 45/45/45
f 49/49/49 48/48/48 50/50/50
f 50/50/50 51/51/51 49/49/49
f 54/54/54 53/53/53 52/52/52
f 54/54/54 52/52/52 55/55/55
f 56/56/56 54/54/54 55/55/55
f 56/56/56 55/55/55 57/57/57
f 57/57/57 58/58/58 56/56/56
f 59/59/59 56/56/56 58/58/58
f 62/62/62 61/61/61 60/60/60
f 60/60/60 63/63/63 62/62/62
f 64/64/64 63/63/63 60/60/60
f 60/60/60 65/65/65 64/64/64
f 66/66/66 64/64/64 65/65/65
f 65/65/65 67/67/67 66/66/66
f 70/70/70 69/69/69 68/68/68
f 71/71/71 69/69/69 70/70/70
f 72/72/72 71/71/71 70/70/70
f 72/72/72 73/73/73 71/71/71
f 73/73/73 72/72/72 74/74/74
f 77/77/77 76/76/76 75/75/75
f 76/76/76 77/77/77 78/78/78
f 79/79/79 76/76/76 78/78/78
f 80/80/80 79/79/79 78/78/78
f 79/79/79 80/80/80 81/81/81
f 81/81/81 82/82/82 79/79/79
f 85/85/85 84/84/84 83/83/83
f 86/86/86 84/84/84 85/85/85
f 84/84/84 86/86/86 87/87/87
f 87/87/87 88/88/88 84/84/84
f 88/88/88 87/87/87 89/89/89
f 89/89/89 90/90/90 88/88/88
f 93/93/93 92/92/92 91/91/91
f 92/92/92 93/93/93 94/94/94
f 92/92/92 94/94/94 95/95/95
f 95/95/95 96/96/96 92/92/92
f 96/96/96 95/95/95 97/97/97
f 97/97/97 98/98/98 96/96/96
f 101/101/101 100/100/100 99/99/99
f 99/99/99 100/100/100 102/102/102
f 103/103/103 100/100/100 101/101/101
f 102/102/102 100/100/100 104/104/104
f 105/105/105 100/100/100 103/103/103
f 104/104/104 100/100/100 106/106/106
f 107/107/107 100/100/100 105/105/105
f 106/106/106 100/100/100 108/108/108
f 109/109/109 100/100/100 107/107/107
f 108/108/108 100/100/100 110/110/110
f 111/111/111 100/100/100 109/109/109
f 110/110/110 100/100/100 111/111/111
f 114/114/114 113/113/113 112/112/112
f 112/112/112 113/113/113 115/115/115
f 116/116/116 113/113/113 114/114/114
f 115/115/115 113/113/113 117/117/117
f 118/118/118 113/113/113 116/116/116
f 117/117/117 113/113/113 119/119/119
f 120/120/120 113/113/113 118/118/118
f 119/119/119 113/113/113 121/121/121
f 122/122/122 113/113/113 120/120/120
f 121/121/121 113/113/113 123/123/123
f 124/124/124 113/113/113 122/122/122
f 123/123/123 113/113/113 124/124/124
