g Roof_8x
v -4.42008972 0.000136999748 -0.365277082
v -4.42008972 -1.99999976 -0.365277082
v -4.40565443 -1.99999976 -0.384489268
v -4.40565443 0.000137152078 -0.384489268
v 6.10351549E-07 -1.99999952 4.15410328
v 6.10351549E-07 0.000137152674 4.15410328
v 4.42008638 0.000136999501 -0.365317672
v 4.42008638 -1.99999976 -0.365317523
v 4.42008638 0.000136999501 -0.365317672
v 4.40564919 0.000137152645 -0.384533525
v 4.40564919 -1.99999976 -0.384533525
v 4.42008638 -1.99999976 -0.365317523
v 6.10351549E-07 -1.99999952 4.15410328
v -4.42008972 -1.99999976 -0.365277082
v -4.42008972 0.000136999748 -0.365277082
v 6.10351549E-07 0.000137152674 4.15410328
v -4.31913376 0.000137152048 -0.444313496
v -4.31913376 -1.99999976 -0.444313198
v -4.31913376 -1.99999976 -0.529025257
v -4.31913376 0.000137152048 -0.529025555
v -4.32565737 -1.99999976 -0.326908857
v -4.32565737 0.000137152383 -0.326908857
v -4.40565443 0.000137152078 -0.384489268
v -4.40565443 -1.99999976 -0.384489268
v -4.32565737 0.000137152383 -0.326908857
v -4.32565737 -1.99999976 -0.326908857
v -4.31913376 -1.99999976 -0.444313198
v -4.31913376 0.000137152048 -0.444313496
v -4.31130934 -1.99999976 -0.525487959
v -4.31130934 0.000138220159 -0.525488257
v -4.31913376 0.000137152048 -0.529025555
v -4.31913376 -1.99999976 -0.529025257
v -4.29820538 0.000138220465 -0.443468004
v -4.31130934 -1.99999976 -0.525487959
v -4.30878925 -1.99999976 -0.443468153
v -4.31130934 0.000138220159 -0.525488257
v 4.31913519 0.000137152383 -0.444313496
v 4.31913519 0.000137152383 -0.529025555
v 4.31913519 -1.99997878 -0.529025257
v 4.31913519 -1.99999976 -0.444313198
v 4.32566166 0.000137152078 -0.326904744
v 4.32566166 -1.99999976 -0.326904744
v 4.32566166 -1.99999976 -0.326904744
v 4.40564919 -1.99999976 -0.384533525
v 4.32566166 0.000137152078 -0.326904744
v 4.40564919 0.000137152645 -0.384533525
v 4.31130981 -1.99999976 -0.525487959
v 4.31913519 -1.99997878 -0.529025257
v 4.31130981 0.000138220494 -0.525488257
v 4.31913519 0.000137152383 -0.529025555
v 4.29820585 0.000138220203 -0.443468004
v 4.29820585 -1.99999976 -0.443467557
v 4.31130981 -1.99999976 -0.525487959
v 4.31130981 0.000138220494 -0.525488257
v -3.999547 7.4597825E-05 -0.277031869
v -3.999547 7.47436352E-05 -0.515054762
v -3.999547 -1.99999976 -0.515054643
v -3.999547 -2.00000095 -0.27703169
v 3.99608541 -1.99999952 -0.27703169
v 3.99608541 7.47438971E-05 -0.515054762
v 3.99608541 7.4597825E-05 -0.277031869
v 3.99608541 -1.99999976 -0.515054643
v -4.31662273 -1.99999976 -0.515054643
v -3.999547 -1.99999976 -0.515054643
v -4.31662273 7.4438758E-05 -0.515054762
v -3.999547 7.47436352E-05 -0.515054762
v 3.99608541 -1.99999976 -0.515054643
v 4.31316137 -2.00004125 -0.515054643
v 4.31316137 -0.000214868152 -0.515054762
v 3.99608541 7.47438971E-05 -0.515054762
v -4.32265663 4.40112956E-07 -0.504861593
v -4.42063904 -1.99999976 -0.504861414
v -4.32265663 -1.99999976 -0.504861414
v -4.42063904 1.05046445E-06 -0.504861593
v -4.32265663 1.34937181E-07 -0.392117441
v -4.32265663 -1.99999976 -0.392117292
v -4.46772051 -1.99999976 -0.392117292
v -4.46772051 7.45288673E-07 -0.392117441
v -4.32265663 1.34937181E-07 -0.392117441
v -4.32265663 -1.99999976 -0.504861414
v -4.32265663 -1.99999976 -0.392117292
v -4.32265663 4.40112956E-07 -0.504861593
v -4.42063904 -1.99999976 -0.504861414
v -4.42063904 1.05046445E-06 -0.504861593
v -4.46742535 7.45288673E-07 -0.432204127
v -4.46742535 -1.99999976 -0.432203978
v -4.46772051 7.45288673E-07 -0.392117441
v -4.46772051 -1.99999976 -0.392117292
v 4.32265663 4.40112956E-07 -0.504861593
v 4.32265663 -1.99999976 -0.504861414
v 4.42063904 -1.99999976 -0.504861414
v 4.42063904 1.05046445E-06 -0.504861593
v 4.32265663 1.34937181E-07 -0.392117441
v 4.46772003 7.45288673E-07 -0.392117441
v 4.46772003 -1.99999976 -0.392117292
v 4.32265663 -1.99999976 -0.392117292
v 4.32265663 1.34937181E-07 -0.392117441
v 4.32265663 -1.99999976 -0.392117292
v 4.32265663 -1.99999976 -0.504861414
v 4.32265663 4.40112956E-07 -0.504861593
v 4.46742535 7.45288673E-07 -0.432204127
v 4.42063904 1.05046445E-06 -0.504861593
v 4.42063904 -1.99999976 -0.504861414
v 4.46742535 -1.99999976 -0.432203978
v 4.46772003 7.45288673E-07 -0.392117441
v 4.46772003 -1.99999976 -0.392117292
vt -0.00246591563 1.43623579
vt 1.00017858 1.4362359
vt 1.00017858 1.42433536
vt -0.0024660239 1.42433524
vt -0.000178813934 1.44196451
vt 1.00246572 1.44196463
vt 1.00246572 -1.3492533
vt -0.000178694638 -1.34925318
vt 1.00246572 1.37338221
vt 1.00246584 1.36146152
vt -0.000178693736 1.36146164
vt -0.000178694056 1.37338209
vt -0.00132262707 -0.868228912
vt -0.0013217926 1.92222202
vt 1.00132263 1.92222178
vt 1.00132179 -0.86822927
vt -0.00246602297 -1.36982346
vt 1.00017858 -1.36982369
vt 1.00017846 -1.39994907
vt -0.00246602297 -1.39994907
vt -0.000178575516 -1.33665776
vt 1.00246596 -1.33665776
vt 1.00246596 -1.36617327
vt -0.000178573624 -1.36617327
vt -0.00246602297 1.42066097
vt 1.00017858 1.42066097
vt 1.00017858 1.37565851
vt -0.00246602297 1.37565851
vt -0.0120294094 -1.39594102
vt 0.98862946 -1.39594102
vt 1.00246596 -1.39994907
vt -0.000178456306 -1.39994907
vt 0.98862946 -1.36216712
vt -0.0120294094 -1.39594102
vt -0.000178575516 -1.36982369
vt 0.98862946 -1.39594102
vt 1.00246584 1.31481338
vt 1.00246584 1.28468776
vt -0.000168085098 1.28468776
vt -0.000178694725 1.31481314
vt 1.00246584 1.36020184
vt -0.000178694725 1.36020184
vt 1.00017869 -1.30804801
vt 1.00017869 -1.33883893
vt -0.00246584415 -1.30804825
vt -0.00246584625 -1.33883882
vt 1.01202965 -1.36643124
vt 1.00016809 -1.37045717
vt 0.0113707781 -1.36643124
vt -0.00246584415 -1.37045717
vt 0.0113707781 -1.3329432
vt 1.01202965 -1.3329432
vt 1.01202965 -1.36643124
vt 0.0113707781 -1.36643124
vt 1.00243461 -1.13445616
vt 1.00243473 -1.282655
vt -0.000178456306 -1.28265524
vt 0.00177574158 -1.1344564
vt 1.00017869 1.32431197
vt -0.00243461132 1.17611337
vt -0.00243443577 1.32431221
vt 1.00017858 1.17611313
vt 0.950865984 -0.998849392
vt 0.792328 -0.998849392
vt 0.950865746 0.00376370549
vt 0.792327762 0.0037638247
vt -2.7054882 -0.998850346
vt -2.86402607 -0.998871088
vt -2.86402631 0.00361815095
vt -2.70548844 0.00376299024
vt 0.868465364 0.996061921
vt 0.906279087 0.369817019
vt 0.868465364 0.369817019
vt 0.906279087 0.996061921
vt 0.998694479 0.996061683
vt 0.998694479 0.369816959
vt 0.946316421 0.369817019
vt 0.94631654 0.996061921
vt 0.907617986 0.995003521
vt 0.969116569 0.372882366
vt 0.907617986 0.372803926
vt 0.969116569 0.995102704
vt 0.906279087 0.369817019
vt 0.906279087 0.996061921
vt 0.933915377 0.996061921
vt 0.933915377 0.369817019
vt 0.94631654 0.996061921
vt 0.946316421 0.369817019
vt 0.868465364 0.996061921
vt 0.868465364 0.369817019
vt 0.906279087 0.369817019
vt 0.906279087 0.996061921
vt 0.998694479 0.996061683
vt 0.94631654 0.996061921
vt 0.946316421 0.369817019
vt 0.998694479 0.369816959
vt 0.907617986 0.995003521
vt 0.907617986 0.372803926
vt 0.969116569 0.372882366
vt 0.969116569 0.995102704
vt 0.933915377 0.996061921
vt 0.906279087 0.996061921
vt 0.906279087 0.369817019
vt 0.933915377 0.369817019
vt 0.94631654 0.996061921
vt 0.946316421 0.369817019
vn -0.799468637 0 -0.600707829
vn -0.799468577 0 -0.600707829
vn -0.799468577 0 -0.600707829
vn -0.799468577 0 -0.600707889
vn 0.714919925 0 0.699206352
vn 0.714919984 0 0.699206352
vn 0.714919984 0 0.699206352
vn 0.714919925 0 0.699206352
vn 0.799494207 0 -0.600673795
vn 0.799494267 0 -0.600673735
vn 0.799494267 0 -0.600673735
vn 0.799494267 0 -0.600673735
vn -0.714916468 0 0.699209929
vn -0.714916468 0 0.699209929
vn -0.714916468 0 0.699209929
vn -0.714916468 0 0.699209929
vn -0.999614835 0 -0.0277510826
vn -0.999614835 0 -0.0277510919
vn -1 0 0
vn -1 0 0
vn 0.584190071 0 -0.811616957
vn 0.584190071 0 -0.811616957
vn 0.584190071 0 -0.811616957
vn 0.584190071 0 -0.811616957
vn -0.998459697 0 -0.0554808006
vn -0.998459697 0 -0.0554808006
vn -0.999614835 0 -0.0277510919
vn -0.999614835 0 -0.0277510826
vn 0.411930412 -1.3898746E-07 -0.911215305
vn 0.411930472 -1.38987488E-07 -0.911215305
vn 0.411930412 -1.3898746E-07 -0.911215305
vn 0.411930442 -1.3898746E-07 -0.911215305
vn 0.995491564 -0.00263391924 -0.0948142856
vn 0.995491564 -0.00263391924 -0.0948142782
vn 0.995491564 -0.00263391901 -0.0948142782
vn 0.995491564 -0.00263391924 -0.0948142856
vn 0.999614596 0 -0.0277617685
vn 1 0 0
vn 1 0 0
vn 0.999614477 0 -0.0277639702
vn 0.998458505 0 -0.055502139
vn 0.998458505 0 -0.055502139
vn -0.584555745 0 -0.811353564
vn -0.584555745 0 -0.811353564
vn -0.584555745 0 -0.811353564
vn -0.584555745 0 -0.811353564
vn -0.411903739 -1.39022575E-07 -0.911227405
vn -0.411903739 -1.39022575E-07 -0.911227405
vn -0.411903679 -1.39022575E-07 -0.911227405
vn -0.411903739 -1.39022575E-07 -0.911227405
vn -0.987477422 0 -0.157760218
vn -0.987477422 0 -0.157760218
vn -0.987477422 0 -0.157760233
vn -0.987477422 0 -0.157760218
vn 1 0 0
vn 1 0 0
vn 1 0 0
vn 1 0 0
vn -1 0 0
vn -1 0 0
vn -1 0 0
vn -1 0 0
vn -0 0 -1
vn -0 0 -1
vn -0 0 -1
vn -0 0 -1
vn -0 0 -1
vn -0 0 -1
vn -0 0 -1
vn -0 0 -1
vn -0 0 -1
vn -0.478854299 0 -0.877894342
vn -0 0 -1
vn -0.478854686 0 -0.877894163
vn -0 0 1
vn -0 0 1
vn -0 0 1
vn -0 0 1
vn 1 0 0
vn 1 0 0
vn 1 0 0
vn 1 0 0
vn -0.478854299 0 -0.877894342
vn -0.478854686 0 -0.877894163
vn -0.958321095 0 -0.285693616
vn -0.958321214 0 -0.285693228
vn -0.999972939 0 -0.00736147491
vn -0.999972939 0 -0.00736147491
vn -0 0 -1
vn -0 0 -1
vn 0.478854299 0 -0.877894342
vn 0.478854686 0 -0.877894163
vn -0 0 1
vn -0 0 1
vn -0 0 1
vn -0 0 1
vn -1 0 0
vn -1 0 0
vn -1 0 0
vn -1 0 0
vn 0.958322048 0 -0.28568992
vn 0.478854686 0 -0.877894163
vn 0.478854299 0 -0.877894342
vn 0.958322167 0 -0.285689563
vn 0.999972939 0 -0.00735386228
vn 0.999972939 0 -0.00735386228
g Roof_8x_0
f 3/3/3 2/2/2 1/1/1
f 1/1/1 4/4/4 3/3/3
f 7/7/7 6/6/6 5/5/5
f 5/5/5 8/8/8 7/7/7
f 11/11/11 10/10/10 9/9/9
f 9/9/9 12/12/12 11/11/11
f 15/15/15 14/14/14 13/13/13
f 13/13/13 16/16/16 15/15/15
g Roof_8x_1
f 19/19/19 18/18/18 17/17/17
f 17/17/17 20/20/20 19/19/19
f 23/23/23 22/22/22 21/21/21
f 21/21/21 24/24/24 23/23/23
f 27/27/27 26/26/26 25/25/25
f 25/25/25 28/28/28 27/27/27
f 31/31/31 30/30/30 29/29/29
f 29/29/29 32/32/32 31/31/31
f 35/35/35 34/34/34 33/33/33
f 34/34/34 36/36/36 33/33/33
f 39/39/39 38/38/38 37/37/37
f 37/37/37 40/40/40 39/39/39
f 40/40/40 37/37/37 41/41/41
f 42/42/42 40/40/40 41/41/41
f 45/45/45 44/44/44 43/43/43
f 45/45/45 46/46/46 44/44/44
f 49/49/49 48/48/48 47/47/47
f 49/49/49 50/50/50 48/48/48
f 53/53/53 52/52/52 51/51/51
f 51/51/51 54/54/54 53/53/53
g Roof_8x_2
f 57/57/57 56/56/56 55/55/55
f 55/55/55 58/58/58 57/57/57
f 61/61/61 60/60/60 59/59/59
f 60/60/60 62/62/62 59/59/59
f 65/65/65 64/64/64 63/63/63
f 65/65/65 66/66/66 64/64/64
f 69/69/69 68/68/68 67/67/67
f 67/67/67 70/70/70 69/69/69
g Roof_8x_3
f 73/73/73 72/72/72 71/71/71
f 74/74/74 71/71/71 72/72/72
f 77/77/77 76/76/76 75/75/75
f 75/75/75 78/78/78 77/77/77
f 81/81/81 80/80/80 79/79/79
f 80/80/80 82/82/82 79/79/79
f 85/85/85 84/84/84 83/83/83
f 83/83/83 86/86/86 85/85/85
f 87/87/87 85/85/85 86/86/86
f 86/86/86 88/88/88 87/87/87
f 91/91/91 90/90/90 89/89/89
f 89/89/89 92/92/92 91/91/91
f 95/95/95 94/94/94 93/93/93
f 93/93/93 96/96/96 95/95/95
f 99/99/99 98/98/98 97/97/97
f 97/97/97 100/100/100 99/99/99
f 103/103/103 102/102/102 101/101/101
f 101/101/101 104/104/104 103/103/103
f 104/104/104 101/101/101 105/105/105
f 105/105/105 106/106/106 104/104/104
