g Stop_Sign
v 0.0248479713 0 0
v 0.0175701678 0.0175701678 2
v 0.0175701678 0.0175701678 0
v 0.0248479713 0 2
v -1.08613918E-09 0.0248479713 2
v 0.0175701678 0.0175701678 0
v 0.0175701678 0.0175701678 2
v -1.08613918E-09 0.0248479713 0
v -0.0175701678 0.0175701678 2
v -0.0175701678 0.0175701678 0
v -0.0248479713 -2.17227836E-09 2
v -0.0175701678 0.0175701678 0
v -0.0175701678 0.0175701678 2
v -0.0248479713 -2.17227836E-09 0
v -0.0175701659 -0.0175701715 2
v -0.0175701659 -0.0175701715 0
v 2.96309061E-10 -0.0248479713 2
v -0.0175701659 -0.0175701715 0
v -0.0175701659 -0.0175701715 2
v 2.96309061E-10 -0.0248479713 0
v 0.0175701678 -0.0175701715 2
v 0.0175701678 -0.0175701715 0
v 0.0175701678 -0.0175701715 0
v 0.0248479713 0 2
v 0.0248479713 0 0
v 0.0175701678 -0.0175701715 2
v 0.0939304307 -0.0323064849 2.13166142
v -0.217348173 -0.0323064663 2.00185871
v -0.0875455439 -0.0323064849 2.13166142
v 0.223733053 -0.0323064663 2.00185871
v -0.217348173 -0.0323064663 1.8203826
v 0.223733053 -0.0323064663 1.8203826
v -0.0875455439 -0.0323064476 1.69058013
v 0.0939304307 -0.0323064476 1.69058013
v -0.217348173 -0.0286013838 2.00185871
v 0.0939304307 -0.0286013838 2.13166142
v -0.0875455439 -0.0286013838 2.13166142
v 0.223733053 -0.0286013838 2.00185871
v -0.217348173 -0.0286013838 1.8203826
v 0.223733053 -0.0286013838 1.8203826
v -0.0875455439 -0.0286013652 1.69058013
v 0.0939304307 -0.0286013652 1.69058013
v 0.0939304307 -0.0323064849 2.13166142
v 0.223733053 -0.0286013838 2.00185871
v 0.223733053 -0.0323064663 2.00185871
v 0.0939304307 -0.0286013838 2.13166142
v -0.0875455439 -0.0323064849 2.13166142
v -0.0875455439 -0.0286013838 2.13166142
v -0.0875455439 -0.0286013838 2.13166142
v -0.217348173 -0.0323064663 2.00185871
v -0.217348173 -0.0286013838 2.00185871
v -0.0875455439 -0.0323064849 2.13166142
v 0.223733053 -0.0286013838 1.8203826
v 0.223733053 -0.0323064663 2.00185871
v 0.223733053 -0.0286013838 2.00185871
v 0.223733053 -0.0323064663 1.8203826
v -0.217348173 -0.0323064663 1.8203826
v -0.217348173 -0.0286013838 2.00185871
v -0.217348173 -0.0323064663 2.00185871
v -0.217348173 -0.0286013838 1.8203826
v -0.0875455439 -0.0323064476 1.69058013
v -0.0875455439 -0.0286013652 1.69058013
v 0.0939304307 -0.0323064476 1.69058013
v -0.0875455439 -0.0286013652 1.69058013
v -0.0875455439 -0.0323064476 1.69058013
v 0.0939304307 -0.0286013652 1.69058013
v 0.223733053 -0.0323064663 1.8203826
v 0.223733053 -0.0286013838 1.8203826
v 0.0248479713 0 2
v 1.07204939E-11 -1.9747394E-10 2
v 0.0175701678 0.0175701678 2
v 0.0175701678 -0.0175701715 2
v -1.08613918E-09 0.0248479713 2
v 2.96309061E-10 -0.0248479713 2
v -0.0175701678 0.0175701678 2
v -0.0175701659 -0.0175701715 2
v -0.0248479713 -2.17227836E-09 2
vt 0.999654353 0.512922287
vt 0.0957167149 0.523296893
vt 0.99965483 0.523300171
vt 0.0957162976 0.512919009
vt 0.095718205 0.533675313
vt 0.99965483 0.523300171
vt 0.0957167149 0.523296893
vt 0.999656498 0.533678353
vt 0.0957207084 0.544053793
vt 0.999658883 0.544057012
vt 0.0957241058 0.554432809
vt 0.999658883 0.544057012
vt 0.0957207084 0.544053793
vt 0.99966222 0.554436088
vt 0.0957285762 0.56481266
vt 0.999666512 0.564815402
vt 0.0957321525 0.575193048
vt 0.999666512 0.564815402
vt 0.0957285762 0.56481266
vt 0.999669611 0.575194955
vt 0.0957317352 0.585573912
vt 0.999675333 0.585574985
vt 0.999675333 0.585574985
vt 0.0957559943 0.595952451
vt 0.999679863 0.59595418
vt 0.0957317352 0.585573912
vt 0.930412173 0.823937356
vt 0.777392983 0.760458469
vt 0.841312945 0.823937356
vt 0.9943313 0.760458469
vt 0.777392983 0.67154485
vt 0.9943313 0.67154485
vt 0.841312945 0.608066261
vt 0.930412173 0.608066022
vt 0.0924671888 0.442515105
vt 0.159457952 0.414580196
vt 0.120402336 0.414580196
vt 0.187393099 0.442515105
vt 0.0924671888 0.48157081
vt 0.187393099 0.48157081
vt 0.120402336 0.509505868
vt 0.159457952 0.509505868
vt 0.930412173 0.823937356
vt 0.99577862 0.761104286
vt 0.9943313 0.760458469
vt 0.930993676 0.825390458
vt 0.841312945 0.823937356
vt 0.840731442 0.82539022
vt 0.840731442 0.82539022
vt 0.777392983 0.760458469
vt 0.775945604 0.761104286
vt 0.841312945 0.823937356
vt 0.99577862 0.670898795
vt 0.9943313 0.760458469
vt 0.99577862 0.761104286
vt 0.9943313 0.67154485
vt 0.777392983 0.67154485
vt 0.775945604 0.761104286
vt 0.777392983 0.760458469
vt 0.775945604 0.670898795
vt 0.841312945 0.608066261
vt 0.840731442 0.606613338
vt 0.930412173 0.608066022
vt 0.840731442 0.606613338
vt 0.841312945 0.608066261
vt 0.930993259 0.6066131
vt 0.9943313 0.67154485
vt 0.99577862 0.670898795
vt 0.520348251 0.88153702
vt 0.49602586 0.871569932
vt 0.506191194 0.895831883
vt 0.520301163 0.86140281
vt 0.486065567 0.895917833
vt 0.505988896 0.847226918
vt 0.471769452 0.881746829
vt 0.485850692 0.847314298
vt 0.471676886 0.861615121
vn 1 4.92862341E-07 0
vn 0.707107067 0.707106411 0
vn 0.707106411 0.707107067 0
vn 1 -4.31254534E-07 0
vn 4.10718599E-07 1 0
vn 0.707106411 0.707107067 0
vn 0.707107067 0.707106411 0
vn -4.9911938E-07 1 0
vn -0.707106411 0.707107067 0
vn -0.707107067 0.707106411 0
vn -1 3.69646756E-07 0
vn -0.707107067 0.707106411 0
vn -0.707106411 0.707107067 0
vn -1 -5.60967806E-07 0
vn -0.707107067 -0.707106471 0
vn -0.707106352 -0.707107127 0
vn -4.92862284E-07 -1 0
vn -0.707106352 -0.707107127 0
vn -0.707107067 -0.707106471 0
vn 4.37030224E-07 -1 0
vn 0.707106352 -0.707107186 0
vn 0.707107067 -0.707106411 0
vn 0.707107067 -0.707106411 0
vn 1 -4.31254534E-07 0
vn 1 4.92862341E-07 0
vn 0.707106352 -0.707107186 0
vn -0 -1 -1.46942284E-07
vn -0 -1 0
vn -0 -1 -1.46942313E-07
vn -0 -1 0
vn -0 -1 0
vn -0 -1 0
vn -0 -1 -1.46942284E-07
vn -0 -1 -1.46942313E-07
vn -0 1 0
vn -0 1 0
vn -0 1 0
vn -0 1 0
vn -0 1 0
vn -0 1 0
vn -0 1 1.46942284E-07
vn -0 1 1.46942313E-07
vn 0.382683158 0 0.923879623
vn 0.923879504 0 0.382683426
vn 0.923879504 0 0.382683456
vn 0.382683128 0 0.923879623
vn -0.382683128 0 0.923879623
vn -0.382683158 0 0.923879623
vn -0.382683158 0 0.923879623
vn -0.923879504 0 0.382683516
vn -0.923879504 0 0.382683396
vn -0.382683128 0 0.923879623
vn 0.923879504 0 -0.382683426
vn 0.923879504 0 0.382683456
vn 0.923879504 0 0.382683426
vn 0.923879504 0 -0.382683426
vn -0.923879504 0 -0.382683396
vn -0.923879504 0 0.382683396
vn -0.923879504 0 0.382683516
vn -0.923879504 0 -0.382683545
vn -0.382683218 0 -0.923879623
vn -0.382683128 0 -0.923879623
vn 0.382683128 0 -0.923879623
vn -0.382683128 0 -0.923879623
vn -0.382683218 0 -0.923879623
vn 0.382683158 0 -0.923879623
vn 0.923879504 0 -0.382683426
vn 0.923879504 0 -0.382683426
vn -0 0 1
vn -0 0 1
vn -0 0 1
vn -0 0 1
vn -0 0 1
vn -0 0 1
vn -0 0 1
vn -0 0 1
vn -0 0 1
g Stop_Sign_0
f 3/3/3 2/2/2 1/1/1
f 4/4/4 1/1/1 2/2/2
f 7/7/7 6/6/6 5/5/5
f 8/8/8 5/5/5 6/6/6
f 5/5/5 8/8/8 9/9/9
f 10/10/10 9/9/9 8/8/8
f 13/13/13 12/12/12 11/11/11
f 14/14/14 11/11/11 12/12/12
f 11/11/11 14/14/14 15/15/15
f 16/16/16 15/15/15 14/14/14
f 19/19/19 18/18/18 17/17/17
f 20/20/20 17/17/17 18/18/18
f 17/17/17 20/20/20 21/21/21
f 22/22/22 21/21/21 20/20/20
f 25/25/25 24/24/24 23/23/23
f 26/26/26 23/23/23 24/24/24
f 29/29/29 28/28/28 27/27/27
f 30/30/30 27/27/27 28/28/28
f 28/28/28 31/31/31 30/30/30
f 32/32/32 30/30/30 31/31/31
f 31/31/31 33/33/33 32/32/32
f 34/34/34 32/32/32 33/33/33
f 37/37/37 36/36/36 35/35/35
f 38/38/38 35/35/35 36/36/36
f 35/35/35 38/38/38 39/39/39
f 40/40/40 39/39/39 38/38/38
f 39/39/39 40/40/40 41/41/41
f 42/42/42 41/41/41 40/40/40
f 45/45/45 44/44/44 43/43/43
f 46/46/46 43/43/43 44/44/44
f 43/43/43 46/46/46 47/47/47
f 48/48/48 47/47/47 46/46/46
f 51/51/51 50/50/50 49/49/49
f 52/52/52 49/49/49 50/50/50
f 55/55/55 54/54/54 53/53/53
f 56/56/56 53/53/53 54/54/54
f 59/59/59 58/58/58 57/57/57
f 60/60/60 57/57/57 58/58/58
f 57/57/57 60/60/60 61/61/61
f 62/62/62 61/61/61 60/60/60
f 65/65/65 64/64/64 63/63/63
f 66/66/66 63/63/63 64/64/64
f 63/63/63 66/66/66 67/67/67
f 68/68/68 67/67/67 66/66/66
f 71/71/71 70/70/70 69/69/69
f 69/69/69 70/70/70 72/72/72
f 73/73/73 70/70/70 71/71/71
f 72/72/72 70/70/70 74/74/74
f 75/75/75 70/70/70 73/73/73
f 74/74/74 70/70/70 76/76/76
f 77/77/77 70/70/70 75/75/75
f 76/76/76 70/70/70 77/77/77
