g Street_Sign
v 0.0220182799 0 2
v 0.0153691862 0.0160524789 2
v 0.0220182799 0 0
v 0.0153691862 0.0160524789 0
v 0.0153691862 0.0160524789 2
v -0.000683288556 0.0227016341 2
v 0.0153691862 0.0160524789 0
v -0.000683288556 0.0227016341 0
v -0.0167358387 0.0160524789 2
v -0.0167358387 0.0160524789 0
v -0.0167358387 0.0160524789 2
v -0.0233850088 -1.98463979E-09 2
v -0.0167358387 0.0160524789 0
v -0.0233850088 -1.98463979E-09 0
v -0.0167358387 -0.0160524826 2
v -0.0167358387 -0.0160524826 0
v -0.0167358387 -0.0160524826 2
v -0.000683288556 -0.0227016341 2
v -0.0167358387 -0.0160524826 0
v -0.000683288556 -0.0227016341 0
v 0.0153691862 -0.0160524826 2
v 0.0153691862 -0.0160524826 0
v 0.0153691862 -0.0160524826 2
v 0.0220182799 0 2
v 0.0153691862 -0.0160524826 0
v 0.0220182799 0 0
v 0.548193038 0.000686221116 1.97318614
v 0.0157513432 0.000686240208 1.84482956
v 0.0157513432 0.000686221116 1.97318614
v 0.548193038 0.000686240208 1.84482956
v 0.548193038 0.00458623888 1.84482956
v 0.548193038 0.00458621979 1.97318614
v 0.0157513432 0.00458623888 1.84482956
v 0.0157513432 0.00458621979 1.97318614
v 0.548193038 0.000686240208 1.84482956
v 0.0157513432 0.00458623888 1.84482956
v 0.0157513432 0.000686240208 1.84482956
v 0.548193038 0.00458623888 1.84482956
v 0.548193038 0.00458621979 1.97318614
v 0.548193038 0.00458623888 1.84482956
v 0.548193038 0.000686240208 1.84482956
v 0.548193038 0.000686221116 1.97318614
v 0.548193038 0.00458621979 1.97318614
v 0.0157513432 0.000686221116 1.97318614
v 0.0157513432 0.00458621979 1.97318614
v 0.548193038 0.000686221116 1.97318614
v 0.0157513432 0.00458621979 1.97318614
v 0.0157513432 0.000686221116 1.97318614
v 0.0157513432 0.000686240208 1.84482956
v 0.0157513432 0.00458623888 1.84482956
v 0.0220182799 0 2
v -0.000683288556 -1.80416376E-10 2
v 0.0153691862 0.0160524789 2
v 0.0153691862 -0.0160524826 2
v -0.000683288556 0.0227016341 2
v -0.000683288556 -0.0227016341 2
v -0.0167358387 0.0160524789 2
v -0.0167358387 -0.0160524826 2
v -0.0233850088 -1.98463979E-09 2
vt 0.0957162976 0.512919009
vt 0.0957167149 0.523296893
vt 0.999654353 0.512922287
vt 0.99965483 0.523300171
vt 0.0957167149 0.523296893
vt 0.095718205 0.533675313
vt 0.99965483 0.523300171
vt 0.999656498 0.533678353
vt 0.0957207084 0.544053793
vt 0.999658883 0.544057012
vt 0.0957207084 0.544053793
vt 0.0957241058 0.554432809
vt 0.999658883 0.544057012
vt 0.99966222 0.554436088
vt 0.0957285762 0.56481266
vt 0.999666512 0.564815402
vt 0.0957285762 0.56481266
vt 0.0957321525 0.575193048
vt 0.999666512 0.564815402
vt 0.999669611 0.575194955
vt 0.0957317352 0.585573912
vt 0.999675333 0.585574985
vt 0.0957317352 0.585573912
vt 0.0957559943 0.595952451
vt 0.999675333 0.585574985
vt 0.999679863 0.59595418
vt 0.468791902 0.992059469
vt 0.0951844305 0.901993573
vt 0.0951844305 0.992059469
vt 0.468791902 0.901993573
vt 0.0951844454 0.901993573
vt 0.0951844454 0.992059469
vt 0.468791902 0.901993573
vt 0.468791902 0.992059469
vt 0.468791902 0.901993573
vt 0.0951844305 0.901993573
vt 0.0951844305 0.901993573
vt 0.468791902 0.901993573
vt 0.468791902 0.992059469
vt 0.468791902 0.901993573
vt 0.468791902 0.901993573
vt 0.468791902 0.992059469
vt 0.468791902 0.992059469
vt 0.0951844305 0.992059469
vt 0.0951844305 0.992059469
vt 0.468791902 0.992059469
vt 0.0951844305 0.992059469
vt 0.0951844305 0.992059469
vt 0.0951844305 0.901993573
vt 0.0951844305 0.901993573
vt 0.520348251 0.88153702
vt 0.49602586 0.871569932
vt 0.506191194 0.895831883
vt 0.520301163 0.86140281
vt 0.486065567 0.895917833
vt 0.505988896 0.847226918
vt 0.471769452 0.881746829
vt 0.485850692 0.847314298
vt 0.471676886 0.861615121
vn 1 0 0
vn 0.707107902 0.707105637 0
vn 1 0 0
vn 0.707107902 0.707105637 0
vn 0.707107902 0.707105637 0
vn 8.41973872E-07 1 0
vn 0.707107902 0.707105637 0
vn 8.41973872E-07 1 0
vn -0.707105935 0.707107544 0
vn -0.707105935 0.707107544 0
vn -0.707105935 0.707107544 0
vn -1 0 0
vn -0.707105935 0.707107544 0
vn -1 0 0
vn -0.707105875 -0.707107663 0
vn -0.707105875 -0.707107663 0
vn -0.707105875 -0.707107663 0
vn 8.41973815E-07 -1 0
vn -0.707105875 -0.707107663 0
vn 8.41973815E-07 -1 0
vn 0.707107902 -0.707105637 0
vn 0.707107902 -0.707105637 0
vn 0.707107902 -0.707105637 0
vn 1 0 0
vn 0.707107902 -0.707105637 0
vn 1 0 0
vn -0 -1 -1.48597593E-07
vn -0 -1 -1.48597593E-07
vn -0 -1 -1.48597593E-07
vn -0 -1 -1.48597593E-07
vn -0 1 1.48597593E-07
vn -0 1 1.48597593E-07
vn -0 1 1.48597593E-07
vn -0 1 1.48597593E-07
vn -0 0 -1
vn -0 0 -1
vn -0 0 -1
vn -0 0 -1
vn 1 0 0
vn 1 0 0
vn 1 0 0
vn 1 0 0
vn -0 0 1
vn -0 0 1
vn -0 0 1
vn -0 0 1
vn -1 0 0
vn -1 0 0
vn -1 0 0
vn -1 0 0
vn -0 0 1
vn -0 0 1
vn -0 0 1
vn -0 0 1
vn -0 0 1
vn -0 0 1
vn -0 0 1
vn -0 0 1
vn -0 0 1
g Street_Sign_0
f 3/3/3 2/2/2 1/1/1
f 3/3/3 4/4/4 2/2/2
f 7/7/7 6/6/6 5/5/5
f 7/7/7 8/8/8 6/6/6
f 8/8/8 9/9/9 6/6/6
f 8/8/8 10/10/10 9/9/9
f 13/13/13 12/12/12 11/11/11
f 13/13/13 14/14/14 12/12/12
f 14/14/14 15/15/15 12/12/12
f 14/14/14 16/16/16 15/15/15
f 19/19/19 18/18/18 17/17/17
f 19/19/19 20/20/20 18/18/18
f 20/20/20 21/21/21 18/18/18
f 20/20/20 22/22/22 21/21/21
f 25/25/25 24/24/24 23/23/23
f 25/25/25 26/26/26 24/24/24
f 29/29/29 28/28/28 27/27/27
f 28/28/28 30/30/30 27/27/27
f 33/33/33 32/32/32 31/31/31
f 32/32/32 33/33/33 34/34/34
f 37/37/37 36/36/36 35/35/35
f 36/36/36 38/38/38 35/35/35
f 41/41/41 40/40/40 39/39/39
f 39/39/39 42/42/42 41/41/41
f 45/45/45 44/44/44 43/43/43
f 44/44/44 46/46/46 43/43/43
f 49/49/49 48/48/48 47/47/47
f 47/47/47 50/50/50 49/49/49
f 53/53/53 52/52/52 51/51/51
f 51/51/51 52/52/52 54/54/54
f 55/55/55 52/52/52 53/53/53
f 54/54/54 52/52/52 56/56/56
f 57/57/57 52/52/52 55/55/55
f 56/56/56 52/52/52 58/58/58
f 59/59/59 52/52/52 57/57/57
f 58/58/58 52/52/52 59/59/59
