g WallUp_A_1x
v 1.62912741E-08 0.5 2.5
v 1.56950311E-08 0 2.5
v 2.01364813E-07 0 3.05175774E-07
v 1.2556977E-07 0.5 1.52587887E-07
v -2.78165544E-08 -0.5 2.5
v 8.1855994E-08 -0.5 1.52587887E-07
v 2.01364813E-07 0 3.05175774E-07
v 1.56950311E-08 0 2.5
v 0.199999988 0.5 2.70000005
v 0.199999884 0.5 1.52587887E-07
v 0.199999809 0 3.05175774E-07
v 0.199999988 0 2.70000005
v 0.200000018 -0.5 2.70000005
v 0.199999988 0 2.70000005
v 0.199999809 0 3.05175774E-07
v 0.199999943 -0.5 1.52587887E-07
vt -1.1920929E-07 0.834716618
vt 0.166666567 0.834716618
vt 0.166666552 0.00138341379
vt -1.1920929E-07 0.0013833642
vt -1.1920929E-07 0.834716618
vt -1.1920929E-07 0.0013833642
vt 0.166666552 0.00138341379
vt 0.166666567 0.834716618
vt -1.1920929E-07 0.901383281
vt -1.1920929E-07 0.0013833642
vt 0.166666552 0.00138341379
vt 0.166666567 0.901383281
vt -1.1920929E-07 0.901383281
vt 0.166666567 0.901383281
vt 0.166666552 0.00138341379
vt -1.1920929E-07 0.0013833642
vn -1 0 0
vn -1 0 0
vn -1 0 0
vn -1 0 0
vn -1 1.63020431E-07 0
vn -1 1.63020431E-07 0
vn -1 0 0
vn -1 0 0
vn 1 0 0
vn 1 0 0
vn 1 0 0
vn 1 0 0
vn 1 1.52587887E-07 0
vn 1 0 0
vn 1 0 0
vn 1 1.52587916E-07 0
g WallUp_A_1x_0
f 3/3/3 2/2/2 1/1/1
f 1/1/1 4/4/4 3/3/3
f 7/7/7 6/6/6 5/5/5
f 5/5/5 8/8/8 7/7/7
g WallUp_A_1x_1
f 11/11/11 10/10/10 9/9/9
f 9/9/9 12/12/12 11/11/11
f 15/15/15 14/14/14 13/13/13
f 13/13/13 16/16/16 15/15/15
