g WallUp_Corner_In
v -0 -0.499999911 2.5
v -0 -0.5 7.62939436E-08
v -0 8.74227801E-09 1.54113768E-05
v -0 7.07311045E-08 2.5
v -0.5 8.50362269E-08 2.5
v -0 7.07311045E-08 2.5
v -0 8.74227801E-09 1.54113768E-05
v -0.5 8.74227801E-09 1.52587887E-07
v -0.5 0.199999988 2.70000005
v -0.5 0.200000077 7.62939436E-08
v 0.199999988 0.199999988 1.54113768E-05
v 0.199999988 0.199999914 2.70000005
v 0.199999988 -0.500000119 2.70000005
v 0.199999988 0.199999914 2.70000005
v 0.199999988 0.199999988 1.54113768E-05
v 0.199999914 -0.5 -1.52587887E-07
vt 1.00013494 0.834950387
vt 1.00013494 0.00161710382
vt 0.833468318 0.00162220001
vt 0.833468318 0.834950387
vt -0.000905811787 0.834950387
vt 0.165760845 0.834950387
vt 0.165760845 0.00162220001
vt -0.000905811787 0.00161713362
vt 0.999885082 0.90138334
vt 0.999885082 0.00138334429
vt 0.833218455 0.0013884306
vt 0.833218455 0.90138334
vt -0.000187670521 0.901383281
vt 0.166479066 0.90138334
vt 0.166479111 0.0013884306
vt -0.000187635422 0.00138327247
vn -1 0 0
vn -1 0 0
vn -1 0 0
vn -1 0 0
vn -0 -1 0
vn -0 -1 0
vn -0 -1 0
vn -0 -1 0
vn 1.08991053E-07 1 0
vn 1.08991046E-07 1 0
vn 1.0899106E-07 1 0
vn 1.08991053E-07 1 0
vn 1 0 0
vn 1 0 0
vn 1 0 0
vn 1 0 0
g WallUp_Corner_In_0
f 3/3/3 2/2/2 1/1/1
f 1/1/1 4/4/4 3/3/3
f 7/7/7 6/6/6 5/5/5
f 5/5/5 8/8/8 7/7/7
g WallUp_Corner_In_1
f 11/11/11 10/10/10 9/9/9
f 9/9/9 12/12/12 11/11/11
f 15/15/15 14/14/14 13/13/13
f 13/13/13 16/16/16 15/15/15
