g vShield
v -0 0.305564404 0.0143349906
v -0 0.0963961557 0.0580490567
v -0.264611334 0.152782172 0.0143349906
v -0 -0.0963961557 0.0580490567
v -2.67117546E-08 -0.305564404 0.0143349906
v -0.264611334 -0.152782157 0.0143349906
v 0.264611334 0.152782202 0.0143349906
v -0 0.0963961557 0.0580490567
v -0 0.305564404 0.0143349906
v 0.264611334 -0.152782202 0.0143349906
v -2.67117546E-08 -0.305564404 0.0143349906
v -0 -0.0963961557 0.0580490567
v -0 0.0947182998 0.0391969495
v -0 0.304261208 -0.00454658037
v -0.26367417 0.152323112 -0.00456275325
v -2.67117546E-08 -0.304261208 -0.00454658037
v -0 -0.0947182998 0.0391969495
v -0.26367417 -0.152323097 -0.00456275325
v -0 0.0947182998 0.0391969495
v 0.26367417 0.152323127 -0.00456275325
v -0 0.304261208 -0.00454658037
v -2.67117546E-08 -0.304261208 -0.00454658037
v 0.26367417 -0.152323142 -0.00456275325
v -0 -0.0947182998 0.0391969495
v 0.290286183 0.167606428 0.0143349906
v 0.290286183 0.167606428 -0.00459163403
v 0.290286183 -0.167606443 -0.00459163403
v 0.290286183 0.167606428 0.0143349906
v 0.290286183 -0.167606443 0.0143349906
v -0.290286183 -0.167606384 0.0143349906
v -0.290286183 -0.167606384 -0.00459163403
v -0.290286183 0.167606413 -0.00459163403
v -0.290286183 -0.167606384 0.0143349906
v -0.290286183 0.167606413 0.0143349906
v -0 -0.0963961557 0.0580490567
v -0.264611334 -0.152782157 0.0143349906
v -0.264611334 0.152782172 0.0143349906
v -0 0.0963961557 0.0580490567
v 0.264611334 -0.152782202 0.0143349906
v -0 -0.0963961557 0.0580490567
v -0 0.0963961557 0.0580490567
v 0.264611334 0.152782202 0.0143349906
v -0.26367417 -0.152323097 -0.00456275325
v -0 -0.0947182998 0.0391969495
v -0 0.0947182998 0.0391969495
v -0.26367417 0.152323112 -0.00456275325
v -0 -0.0947182998 0.0391969495
v 0.26367417 -0.152323142 -0.00456275325
v 0.26367417 0.152323127 -0.00456275325
v -0 0.0947182998 0.0391969495
v -0 0.335212857 0.0143349906
v -0 0.335212857 -0.00459163403
v 0.290286183 0.167606428 -0.00459163403
v 0.290286183 0.167606428 0.0143349906
v 0.290286183 -0.167606443 0.0143349906
v 0.290286183 -0.167606443 -0.00459163403
v -2.93035551E-08 -0.335212857 -0.00459163403
v -2.93035551E-08 -0.335212857 0.0143349906
v -2.93035551E-08 -0.335212857 0.0143349906
v -2.93035551E-08 -0.335212857 -0.00459163403
v -0.290286183 -0.167606384 -0.00459163403
v -0.290286183 -0.167606384 0.0143349906
v -0.290286183 0.167606413 0.0143349906
v -0.290286183 0.167606413 -0.00459163403
v -0 0.335212857 -0.00459163403
v -0 0.335212857 0.0143349906
v -0 0.305564404 0.0143349906
v -0 0.335212857 0.0143349906
v 0.290286183 0.167606428 0.0143349906
v 0.264611334 0.152782202 0.0143349906
v -0.264611334 0.152782172 0.0143349906
v 0.290286183 -0.167606443 0.0143349906
v -0.290286183 0.167606413 0.0143349906
v 0.264611334 -0.152782202 0.0143349906
v -0.264611334 -0.152782157 0.0143349906
v -2.93035551E-08 -0.335212857 0.0143349906
v -0.290286183 -0.167606384 0.0143349906
v -2.67117546E-08 -0.305564404 0.0143349906
v -0 0.335212857 -0.00459163403
v -0 0.304261208 -0.00454658037
v 0.26367417 0.152323127 -0.00456275325
v 0.290286183 0.167606428 -0.00459163403
v -0.290286183 0.167606413 -0.00459163403
v 0.26367417 -0.152323142 -0.00456275325
v -0.26367417 0.152323112 -0.00456275325
v 0.290286183 -0.167606443 -0.00459163403
v -0.290286183 -0.167606384 -0.00459163403
v -2.67117546E-08 -0.304261208 -0.00454658037
v -0.26367417 -0.152323097 -0.00456275325
v -2.93035551E-08 -0.335212857 -0.00459163403
vt 0.29885906 0.433323681
vt 0.298192561 0.606190622
vt 0.514454663 0.559426725
vt 0.296237707 0.760414541
vt 0.295570731 0.933281541
vt 0.512921572 0.809422135
vt 0.0815091506 0.557183623
vt 0.298192561 0.606190622
vt 0.29885906 0.433323681
vt 0.0799757913 0.807177603
vt 0.295570731 0.933281541
vt 0.296237707 0.760414541
vt 0.712079048 0.21888411
vt 0.712506294 0.0521194488
vt 0.5040254 0.171088487
vt 0.71000725 0.531556189
vt 0.710434318 0.364791691
vt 0.502930105 0.411049843
vt 0.712079048 0.21888411
vt 0.919583499 0.172626585
vt 0.712506294 0.0521194488
vt 0.71000725 0.531556189
vt 0.918487847 0.412587136
vt 0.710434318 0.364791691
vt 0.0589158013 0.543003142
vt 0.0406185165 0.533675313
vt 0.0391972438 0.83081013
vt 0.0589158013 0.543003142
vt 0.0564172342 0.819634378
vt 0.53551501 0.823602617
vt 0.553812206 0.832930624
vt 0.555233657 0.535793602
vt 0.53551501 0.823602617
vt 0.538013339 0.546969831
vt 0.296237707 0.760414541
vt 0.512921572 0.809422135
vt 0.514454663 0.559426725
vt 0.298192561 0.606190622
vt 0.0799757913 0.807177603
vt 0.296237707 0.760414541
vt 0.298192561 0.606190622
vt 0.0815091506 0.557183623
vt 0.502930105 0.411049843
vt 0.710434318 0.364791691
vt 0.712079048 0.21888411
vt 0.5040254 0.171088487
vt 0.710434318 0.364791691
vt 0.918487847 0.412587136
vt 0.919583499 0.172626585
vt 0.712079048 0.21888411
vt 0.299824446 0.406673968
vt 0.298739612 0.38616848
vt 0.0406185165 0.533675313
vt 0.0589158013 0.543003142
vt 0.0564172342 0.819634378
vt 0.0391972438 0.83081013
vt 0.295689762 0.980436504
vt 0.294605315 0.959931314
vt 0.294605315 0.959931314
vt 0.295689762 0.980436504
vt 0.553812206 0.832930624
vt 0.53551501 0.823602617
vt 0.538013339 0.546969831
vt 0.555233657 0.535793602
vt 0.298739612 0.38616848
vt 0.299824446 0.406673968
vt 0.29885906 0.433323681
vt 0.299824446 0.406673968
vt 0.0589158013 0.543003142
vt 0.0815091506 0.557183623
vt 0.514454663 0.559426725
vt 0.0564172342 0.819634378
vt 0.538013339 0.546969831
vt 0.0799757913 0.807177603
vt 0.512921572 0.809422135
vt 0.294605315 0.959931314
vt 0.53551501 0.823602617
vt 0.295570731 0.933281541
vt 0.712602019 0.0277289152
vt 0.712506294 0.0521194488
vt 0.919583499 0.172626585
vt 0.940567911 0.160725862
vt 0.483173132 0.158992663
vt 0.918487847 0.412587136
vt 0.5040254 0.171088487
vt 0.939340174 0.424682796
vt 0.481945932 0.422950566
vt 0.71000725 0.531556189
vt 0.502930105 0.411049843
vt 0.709911466 0.555946827
vn -0.117300071 0.203157991 0.972094417
vn -0.117300071 0.203157991 0.972094417
vn -0.117300071 0.203157991 0.972094417
vn -0.117300116 -0.203157991 0.972094417
vn -0.117300116 -0.203157991 0.972094417
vn -0.117300116 -0.203157991 0.972094417
vn 0.117300063 0.203157961 0.972094417
vn 0.117300063 0.203157961 0.972094417
vn 0.117300063 0.203157961 0.972094417
vn 0.117300034 -0.203157991 0.972094417
vn 0.117300034 -0.203157991 0.972094417
vn 0.117300034 -0.203157991 0.972094417
vn 0.117005236 -0.202948034 -0.97217381
vn 0.117005236 -0.202948034 -0.97217381
vn 0.117005236 -0.202948034 -0.97217381
vn 0.117005214 0.20294793 -0.97217381
vn 0.117005214 0.20294793 -0.97217381
vn 0.117005214 0.20294793 -0.97217381
vn -0.117005222 -0.202948034 -0.97217381
vn -0.117005222 -0.202948034 -0.97217381
vn -0.117005222 -0.202948034 -0.97217381
vn -0.117005169 0.202947974 -0.97217381
vn -0.117005169 0.202947974 -0.97217381
vn -0.117005169 0.202947974 -0.97217381
vn 1 0 0
vn 1 0 0
vn 1 0 0
vn 1 0 0
vn 1 0 0
vn -1 0 0
vn -1 0 0
vn -1 0 0
vn -1 0 0
vn -1 0 0
vn -0.162991837 0 0.9866274
vn -0.162991837 0 0.9866274
vn -0.162991837 0 0.9866274
vn -0.162991837 0 0.9866274
vn 0.162991852 0 0.9866274
vn 0.162991852 0 0.9866274
vn 0.162991852 0 0.9866274
vn 0.162991852 0 0.9866274
vn 0.163721859 0 -0.986506462
vn 0.163721859 0 -0.986506462
vn 0.163721859 0 -0.986506462
vn 0.163721859 0 -0.986506462
vn -0.163721859 0 -0.986506462
vn -0.163721859 0 -0.986506462
vn -0.163721859 0 -0.986506462
vn -0.163721859 0 -0.986506462
vn 0.500021517 0.86601299 0
vn 0.500021517 0.86601299 0
vn 0.500021517 0.86601299 0
vn 0.500021517 0.86601299 0
vn 0.500021517 -0.86601311 0
vn 0.500021517 -0.86601311 0
vn 0.500021517 -0.86601311 0
vn 0.500021517 -0.86601311 0
vn -0.500021577 -0.866012931 0
vn -0.500021577 -0.866012931 0
vn -0.500021577 -0.866012931 0
vn -0.500021577 -0.866012931 0
vn -0.500021517 0.86601299 0
vn -0.500021517 0.86601299 0
vn -0.500021517 0.86601299 0
vn -0.500021517 0.86601299 0
vn -0 0 1
vn -0 0 1
vn -0 0 1
vn -0 0 1
vn -0 0 1
vn -0 0 1
vn -0 0 1
vn -0 0 1
vn -0 0 1
vn -0 0 1
vn -0 0 1
vn -0 0 1
vn -0.000714410271 -0.00118789903 -0.999999046
vn -0.000714410271 -0.00118789903 -0.999999046
vn -0.000714410271 -0.00118789903 -0.999999046
vn -0.000714410271 -0.00118789903 -0.999999046
vn 0.00071441062 -0.00118789973 -0.999999046
vn -0.00108522864 0 -0.999999404
vn 0.00071441062 -0.00118789973 -0.999999046
vn -0.00108522864 0 -0.999999404
vn 0.000714411377 0.00118790101 -0.999999046
vn 0.000714411377 0.00118790101 -0.999999046
vn 0.000714411377 0.00118790101 -0.999999046
vn 0.000714411377 0.00118790101 -0.999999046
g vShield_0
f 3/3/3 2/2/2 1/1/1
f 6/6/6 5/5/5 4/4/4
f 9/9/9 8/8/8 7/7/7
f 12/12/12 11/11/11 10/10/10
f 15/15/15 14/14/14 13/13/13
f 18/18/18 17/17/17 16/16/16
f 21/21/21 20/20/20 19/19/19
f 24/24/24 23/23/23 22/22/22
f 27/27/27 26/26/26 25/25/25
f 29/29/29 27/27/27 28/28/28
f 32/32/32 31/31/31 30/30/30
f 34/34/34 32/32/32 33/33/33
f 37/37/37 36/36/36 35/35/35
f 38/38/38 37/37/37 35/35/35
f 41/41/41 40/40/40 39/39/39
f 42/42/42 41/41/41 39/39/39
f 45/45/45 44/44/44 43/43/43
f 46/46/46 45/45/45 43/43/43
f 49/49/49 48/48/48 47/47/47
f 50/50/50 49/49/49 47/47/47
f 53/53/53 52/52/52 51/51/51
f 54/54/54 53/53/53 51/51/51
f 57/57/57 56/56/56 55/55/55
f 58/58/58 57/57/57 55/55/55
f 61/61/61 60/60/60 59/59/59
f 62/62/62 61/61/61 59/59/59
f 65/65/65 64/64/64 63/63/63
f 66/66/66 65/65/65 63/63/63
f 69/69/69 68/68/68 67/67/67
f 70/70/70 69/69/69 67/67/67
f 67/67/67 68/68/68 71/71/71
f 72/72/72 69/69/69 70/70/70
f 68/68/68 73/73/73 71/71/71
f 74/74/74 72/72/72 70/70/70
f 71/71/71 73/73/73 75/75/75
f 76/76/76 72/72/72 74/74/74
f 73/73/73 77/77/77 75/75/75
f 78/78/78 76/76/76 74/74/74
f 75/75/75 77/77/77 78/78/78
f 77/77/77 76/76/76 78/78/78
f 81/81/81 80/80/80 79/79/79
f 82/82/82 81/81/81 79/79/79
f 79/79/79 80/80/80 83/83/83
f 84/84/84 81/81/81 82/82/82
f 80/80/80 85/85/85 83/83/83
f 86/86/86 84/84/84 82/82/82
f 83/83/83 85/85/85 87/87/87
f 88/88/88 84/84/84 86/86/86
f 85/85/85 89/89/89 87/87/87
f 90/90/90 88/88/88 86/86/86
f 87/87/87 89/89/89 90/90/90
f 89/89/89 88/88/88 90/90/90
